<svg width="1053" height="1053" viewBox="0 0 1053 1053" fill="none" xmlns="http://www.w3.org/2000/svg">
<rect width="1053" height="1053" fill="#1E4D43"/>
<path d="M711.112 191C827.754 191 922.312 285.558 922.312 402.2C922.312 518.843 827.754 613.4 711.112 613.4H554.765C554.277 613.4 553.789 613.397 553.301 613.394L588.429 522.2H715.901C783.5 522.2 838.3 467.399 838.3 399.8C838.3 332.2 783.5 277.4 715.901 277.4H380.328L330.444 191H711.112Z" fill="white"/>
<path d="M707.512 349.4C732.696 349.4 753.112 369.816 753.112 395C753.112 420.184 732.696 440.6 707.512 440.6H574.312C573.968 440.6 573.625 440.594 573.283 440.587L480.112 711.2H389.512L513.712 349.4H707.512Z" fill="#ECAF44"/>
<path d="M369.081 641.792L368.942 642.2H323.189L323.012 641.931L283.562 582.2H389.231L369.081 641.792ZM406.68 530.6H249.482L205.893 464.6H428.997L406.68 530.6ZM467.48 350.792L446.04 414.2H172.605L131.611 352.13L131 351.204L132.11 351.2L466.91 350L467.75 349.997L467.48 350.792Z" fill="white"/>
<path d="M188.728 835.144C192.739 835.144 196.152 835.272 198.968 835.528C201.784 835.699 204.387 835.997 206.776 836.424C209.165 836.765 211.64 837.277 214.2 837.96L212.792 849.864C210.147 849.693 207.672 849.565 205.368 849.48C203.064 849.309 200.589 849.181 197.944 849.096C195.384 849.011 192.312 848.968 188.728 848.968C183.779 848.968 179.896 849.949 177.08 851.912C174.264 853.875 172.259 857.16 171.064 861.768C169.955 866.376 169.4 872.733 169.4 880.84C169.4 888.947 169.955 895.304 171.064 899.912C172.259 904.52 174.264 907.805 177.08 909.768C179.896 911.731 183.779 912.712 188.728 912.712C194.445 912.712 199.224 912.627 203.064 912.456C206.989 912.2 210.829 911.859 214.584 911.432L215.992 923.208C212.152 924.403 208.184 925.256 204.088 925.768C199.992 926.28 194.872 926.536 188.728 926.536C179.853 926.536 172.771 925.085 167.48 922.184C162.189 919.197 158.349 914.376 155.96 907.72C153.656 901.064 152.504 892.104 152.504 880.84C152.504 869.576 153.656 860.616 155.96 853.96C158.349 847.304 162.189 842.525 167.48 839.624C172.771 836.637 179.853 835.144 188.728 835.144Z" fill="white"/>
<path d="M299.586 836.68V925H283.586V836.68H299.586Z" fill="white"/>
<path d="M441.96 836.68L416.744 920.52C416.317 921.8 415.592 922.867 414.568 923.72C413.544 924.573 412.307 925 410.856 925H395.752C394.301 925 393.064 924.573 392.04 923.72C391.016 922.867 390.333 921.8 389.992 920.52L364.776 836.68H381.288L399.336 903.112C399.763 904.733 400.189 906.355 400.616 907.976C401.043 909.597 401.384 911.219 401.64 912.84H404.968C405.395 911.219 405.779 909.597 406.12 907.976C406.547 906.269 406.973 904.605 407.4 902.984L425.448 836.68H441.96Z" fill="white"/>
<path d="M523.106 836.68V925H507.106V836.68H523.106Z" fill="white"/>
<path d="M612.232 836.68V904.52C612.232 906.995 612.872 908.872 614.152 910.152C615.517 911.347 617.437 911.944 619.912 911.944H651.144L651.912 924.104C646.109 924.616 640.051 924.915 633.736 925C627.507 925.171 621.32 925.256 615.176 925.256C608.691 925.256 603.912 923.592 600.84 920.264C597.853 916.936 596.36 912.712 596.36 907.592V836.68H612.232Z" fill="white"/>
<path d="M735.159 836.424C739.596 836.424 744.119 836.424 748.727 836.424C753.42 836.424 758.028 836.509 762.551 836.68C767.074 836.851 771.34 837.107 775.351 837.448L774.583 849.352H740.023C737.634 849.352 735.842 849.949 734.647 851.144C733.538 852.339 732.983 854.216 732.983 856.776V904.904C732.983 907.464 733.538 909.341 734.647 910.536C735.842 911.731 737.634 912.328 740.023 912.328H774.583L775.351 924.232C771.34 924.573 767.074 924.829 762.551 925C758.028 925.085 753.42 925.128 748.727 925.128C744.119 925.213 739.596 925.256 735.159 925.256C729.698 925.256 725.303 923.763 721.975 920.776C718.732 917.704 717.068 913.608 716.983 908.488V853.192C717.068 848.072 718.732 844.019 721.975 841.032C725.303 837.96 729.698 836.424 735.159 836.424ZM719.287 872.904H769.719V884.68H719.287V872.904Z" fill="white"/>
<path d="M871.647 835.016C875.999 835.101 880.564 835.357 885.343 835.784C890.207 836.211 894.943 837.021 899.551 838.216L898.527 849.096C894.858 849.011 890.591 848.925 885.727 848.84C880.948 848.669 876.34 848.584 871.903 848.584C869.172 848.584 866.826 848.669 864.863 848.84C862.986 849.011 861.45 849.437 860.255 850.12C859.06 850.803 858.164 851.869 857.567 853.32C857.055 854.685 856.799 856.605 856.799 859.08C856.799 862.92 857.567 865.651 859.103 867.272C860.724 868.893 863.327 870.173 866.911 871.112L884.319 876.232C891.316 878.365 896.138 881.48 898.783 885.576C901.428 889.587 902.751 894.963 902.751 901.704C902.751 906.739 902.154 910.877 900.959 914.12C899.764 917.363 897.93 919.88 895.455 921.672C892.98 923.464 889.738 924.744 885.727 925.512C881.716 926.28 876.895 926.664 871.263 926.664C868.362 926.664 864.351 926.493 859.231 926.152C854.196 925.811 848.436 924.957 841.951 923.592L842.975 912.072C848.01 912.243 852.234 912.413 855.647 912.584C859.06 912.669 862.004 912.712 864.479 912.712C866.954 912.712 869.258 912.712 871.391 912.712C875.316 912.712 878.388 912.456 880.607 911.944C882.826 911.432 884.362 910.365 885.215 908.744C886.154 907.123 886.623 904.776 886.623 901.704C886.623 899.059 886.282 897.011 885.599 895.56C885.002 894.024 883.978 892.829 882.527 891.976C881.076 891.123 879.199 890.397 876.895 889.8L858.847 884.296C852.191 882.248 847.498 879.219 844.767 875.208C842.122 871.197 840.799 865.821 840.799 859.08C840.799 854.045 841.396 849.949 842.591 846.792C843.786 843.549 845.62 841.117 848.095 839.496C850.57 837.789 853.727 836.637 857.567 836.04C861.492 835.357 866.186 835.016 871.647 835.016Z" fill="white"/>
</svg>
