<svg width="1053" height="1053" viewBox="0 0 1053 1053" fill="none" xmlns="http://www.w3.org/2000/svg">
<rect width="1053" height="1053" fill="#8B1E1E"/>
<path d="M711.112 191C827.754 191 922.312 285.558 922.312 402.2C922.312 518.843 827.754 613.4 711.112 613.4H554.765C554.277 613.4 553.789 613.397 553.301 613.394L588.429 522.2H715.901C783.5 522.2 838.3 467.399 838.3 399.8C838.3 332.2 783.5 277.4 715.901 277.4H380.328L330.444 191H711.112Z" fill="white"/>
<path d="M707.512 349.4C732.696 349.4 753.112 369.816 753.112 395C753.112 420.184 732.696 440.6 707.512 440.6H574.312C573.968 440.6 573.625 440.594 573.283 440.587L480.112 711.2H389.512L513.712 349.4H707.512Z" fill="#ECAF44"/>
<path d="M369.081 641.792L368.942 642.2H323.189L323.012 641.931L283.562 582.2H389.231L369.081 641.792ZM406.68 530.6H249.482L205.893 464.6H428.997L406.68 530.6ZM467.48 350.792L446.04 414.2H172.605L131.611 352.13L131 351.204L132.11 351.2L466.91 350L467.75 349.997L467.48 350.792Z" fill="white"/>
<path d="M311.227 835.016C315.579 835.101 320.144 835.357 324.923 835.784C329.787 836.211 334.523 837.021 339.131 838.216L338.107 849.096C334.438 849.011 330.171 848.925 325.307 848.84C320.528 848.669 315.92 848.584 311.483 848.584C308.752 848.584 306.406 848.669 304.443 848.84C302.566 849.011 301.03 849.437 299.835 850.12C298.64 850.803 297.744 851.869 297.147 853.32C296.635 854.685 296.379 856.605 296.379 859.08C296.379 862.92 297.147 865.651 298.683 867.272C300.304 868.893 302.907 870.173 306.491 871.112L323.899 876.232C330.896 878.365 335.718 881.48 338.363 885.576C341.008 889.587 342.331 894.963 342.331 901.704C342.331 906.739 341.734 910.877 340.539 914.12C339.344 917.363 337.51 919.88 335.035 921.672C332.56 923.464 329.318 924.744 325.307 925.512C321.296 926.28 316.475 926.664 310.843 926.664C307.942 926.664 303.931 926.493 298.811 926.152C293.776 925.811 288.016 924.957 281.531 923.592L282.555 912.072C287.59 912.243 291.814 912.413 295.227 912.584C298.64 912.669 301.584 912.712 304.059 912.712C306.534 912.712 308.838 912.712 310.971 912.712C314.896 912.712 317.968 912.456 320.187 911.944C322.406 911.432 323.942 910.365 324.795 908.744C325.734 907.123 326.203 904.776 326.203 901.704C326.203 899.059 325.862 897.011 325.179 895.56C324.582 894.024 323.558 892.829 322.107 891.976C320.656 891.123 318.779 890.397 316.475 889.8L298.427 884.296C291.771 882.248 287.078 879.219 284.347 875.208C281.702 871.197 280.379 865.821 280.379 859.08C280.379 854.045 280.976 849.949 282.171 846.792C283.366 843.549 285.2 841.117 287.675 839.496C290.15 837.789 293.307 836.637 297.147 836.04C301.072 835.357 305.766 835.016 311.227 835.016Z" fill="white"/>
<path d="M450.388 836.68C451.753 836.68 452.948 837.064 453.972 837.832C454.996 838.6 455.721 839.624 456.148 840.904L482.9 925H466.516L446.292 856.904C445.951 855.539 445.609 854.173 445.268 852.808C444.927 851.443 444.628 850.12 444.372 848.84H440.788C440.532 850.12 440.233 851.443 439.892 852.808C439.551 854.173 439.167 855.539 438.74 856.904L418.644 925H402.26L429.012 840.904C429.353 839.624 430.036 838.6 431.06 837.832C432.169 837.064 433.407 836.68 434.772 836.68H450.388ZM465.236 887.24V899.784H419.796V887.24H465.236Z" fill="white"/>
<path d="M634.535 836.68C638.546 836.68 640.594 838.728 640.679 842.824L644.135 925H628.903L625.831 849.352H623.399L606.887 908.616C606.119 912.115 603.943 913.864 600.359 913.864H589.095C585.426 913.864 583.164 912.115 582.311 908.616L565.799 849.352H563.367L560.551 925H545.319L548.775 842.824C548.946 838.728 550.994 836.68 554.919 836.68H570.919C574.332 836.68 576.466 838.429 577.319 841.928L590.887 890.312C591.484 892.36 591.954 894.408 592.295 896.456C592.722 898.504 593.191 900.552 593.703 902.6H595.623C596.135 900.552 596.604 898.504 597.031 896.456C597.458 894.408 597.927 892.317 598.439 890.184L612.007 841.928C612.775 838.429 614.951 836.68 618.535 836.68H634.535Z" fill="white"/>
<path d="M743.132 835.016C747.484 835.101 752.049 835.357 756.828 835.784C761.692 836.211 766.428 837.021 771.036 838.216L770.012 849.096C766.343 849.011 762.076 848.925 757.212 848.84C752.433 848.669 747.825 848.584 743.388 848.584C740.657 848.584 738.311 848.669 736.348 848.84C734.471 849.011 732.935 849.437 731.74 850.12C730.545 850.803 729.649 851.869 729.052 853.32C728.54 854.685 728.284 856.605 728.284 859.08C728.284 862.92 729.052 865.651 730.588 867.272C732.209 868.893 734.812 870.173 738.396 871.112L755.804 876.232C762.801 878.365 767.623 881.48 770.268 885.576C772.913 889.587 774.236 894.963 774.236 901.704C774.236 906.739 773.639 910.877 772.444 914.12C771.249 917.363 769.415 919.88 766.94 921.672C764.465 923.464 761.223 924.744 757.212 925.512C753.201 926.28 748.38 926.664 742.748 926.664C739.847 926.664 735.836 926.493 730.716 926.152C725.681 925.811 719.921 924.957 713.436 923.592L714.46 912.072C719.495 912.243 723.719 912.413 727.132 912.584C730.545 912.669 733.489 912.712 735.964 912.712C738.439 912.712 740.743 912.712 742.876 912.712C746.801 912.712 749.873 912.456 752.092 911.944C754.311 911.432 755.847 910.365 756.7 908.744C757.639 907.123 758.108 904.776 758.108 901.704C758.108 899.059 757.767 897.011 757.084 895.56C756.487 894.024 755.463 892.829 754.012 891.976C752.561 891.123 750.684 890.397 748.38 889.8L730.332 884.296C723.676 882.248 718.983 879.219 716.252 875.208C713.607 871.197 712.284 865.821 712.284 859.08C712.284 854.045 712.881 849.949 714.076 846.792C715.271 843.549 717.105 841.117 719.58 839.496C722.055 837.789 725.212 836.637 729.052 836.04C732.977 835.357 737.671 835.016 743.132 835.016Z" fill="white"/>
</svg>
